<svg xmlns="http://www.w3.org/2000/svg" viewBox="0 0 32 32" id="Flag-Moldova--Streamline-Emojitwo" height="32" width="32">
  <desc>
    Flag Moldova Streamline Emoji: https://streamlinehq.com
  </desc>
  <title>flag: Moldova</title>
  <path fill="#ed4c5c" d="M31 16c0 -6.55 -4.15 -12.1 -10 -14.15v28.3C26.85 28.1 31 22.55 31 16" stroke-width="0.5"></path>
  <path fill="#2a5f9e" d="M1 16c0 6.55 4.2 12.1 10 14.15V1.85C5.2 3.9 1 9.45 1 16z" stroke-width="0.5"></path>
  <path fill="#ffe62e" d="M21 1.85C19.45 1.3 17.75 1 16 1s-3.45 0.3 -5 0.85v28.3c1.55 0.55 3.25 0.85 5 0.85s3.45 -0.3 5 -0.85V1.85" stroke-width="0.5"></path>
  <path fill="#997361" d="M20.6 15.45h0.05v-0.5l-0.4 0.3 0.05 0.05 -0.05 0.05v0.05H20c-0.05 0.05 -0.05 0.1 -0.05 0.2v0.2c0 0.1 -0.05 0.15 -0.05 0.15l-0.05 0.05v-3.45c0 -0.3 -0.95 -1.2 -0.95 -1.2l-0.95 0.75 0.05 0.6c-0.2 0 -0.95 0.45 -1.05 0.45 -0.8 -0.45 -0.25 -1.45 -0.25 -1.5l0.1 0.1s0.1 -0.4 -0.1 -0.7l0.4 -0.1s-0.95 -0.7 -1.85 -0.35c0 -0.1 0 -0.15 -0.05 -0.2l-0.1 -0.1 -0.05 0.15c0 0.05 -0.05 0.05 -0.1 0.05h-0.1v-0.1c0 -0.05 0 -0.05 0.05 -0.1l0.15 -0.05 -0.05 -0.05c-0.1 -0.1 -0.35 -0.1 -0.45 0l-0.1 0.1 0.15 0.05c0.05 0 0.05 0.05 0.05 0.1v0.05h-0.1c-0.05 0 -0.05 0 -0.1 -0.05l-0.05 -0.1 -0.1 0.1c-0.05 0.05 -0.05 0.15 -0.05 0.2 0 0.1 0 0.15 0.05 0.2l0.1 0.1 0.05 -0.1c0 -0.05 0.05 -0.05 0.1 -0.05h0.1V11.5c0 0.05 0 0.05 -0.05 0.05l-0.25 0.1 0.3 0.05c0.05 0 0.1 0.1 0.1 0.15l0.05 0.2 0.05 -0.2c0 -0.05 0.05 -0.15 0.1 -0.15l0.3 -0.05c0 0.1 0.15 1.05 -0.4 1.45 -0.1 -0.05 -0.85 -0.45 -1.05 -0.45l0.05 -0.6 -0.95 -0.75s-0.95 0.9 -0.95 1.2v2.4l-0.05 -0.05 -0.05 0.1s-0.05 0.05 -0.05 0.1c-0.1 -0.1 -0.2 -0.15 -0.25 -0.15l-0.05 -0.05v0.1s-0.05 0.25 0 0.4h-0.2v0.1s0.05 0.25 0.25 0.4c0.1 0.1 0.25 0.1 0.3 0.1l0.1 0.2v0.05c-0.1 -0.05 -0.2 -0.05 -0.25 -0.05H11.5l0.05 0.1s0.05 0.05 0.05 0.1H11.5l0.05 0.05s0.15 0.25 0.35 0.3h0.1c0 1.2 -0.15 3.4 -0.15 3.4l1.4 -1.25s-0.25 0.35 -0.3 0.5c-0.05 0.2 0.1 0.65 0.65 0.45l-0.05 0.25 0.45 0.25c-0.05 0.05 -0.35 0.15 -0.35 0.15l2.2 1.45 2.2 -1.45s-1.2 -0.45 -1.6 -2.05l0.35 -0.15c0.15 0.1 1.15 1.4 1.15 1.4l-0.05 0.05h-0.05c-0.05 0 -0.05 0.05 -0.05 0.45v0.1l0.1 -0.05c0.35 -0.25 0.35 -0.25 0.35 -0.3 0 0 0 -0.05 -0.05 -0.05h0.05c0.05 0 0.3 -0.1 0.35 -0.2 0.25 -0.35 0.1 -0.65 0.1 -0.65 0.1 0.15 1.2 1.1 1.2 1.1s-0.15 -2.15 -0.15 -3.3l0.25 -0.45h0.05l0.05 -0.05v-0.05s0.05 0 0.05 -0.05c0.05 -0.05 0.05 -0.05 0.05 -0.1s0 -0.05 0.1 -0.15c0.05 -0.05 0.1 -0.1 0.15 -0.1 0.1 -0.05 0.15 -0.1 0.15 -0.15 0 0 0 -0.05 -0.1 -0.2l0.05 -0.05c0.05 0.05 0.05 0 0.05 0m-5.55 -4.65c-0.05 0 -0.1 0 -0.1 0.05v-0.05h0.1c0 -0.05 0.05 0 0 0m3.15 8.05c-0.05 -0.1 -0.4 -0.8 -0.5 -0.95 0.05 -0.05 0.1 -0.05 0.2 -0.1s0.2 -0.15 0.25 -0.2c0.1 0.35 0.25 0.85 0.4 1.15 0 0 -0.35 0.15 -0.35 0.1m-4.65 0.05 -0.05 -0.15c0.05 -0.05 0.2 -0.15 0.25 -0.25 0.1 -0.2 0.05 -0.4 0.05 -0.45v-0.1l-0.15 0.05c0 -0.05 0.05 -0.35 0.1 -0.5 0.05 0.05 0.15 0.15 0.25 0.2 0.05 0.05 0.1 0.05 0.2 0.1 -0.1 0.6 -0.65 1.1 -0.65 1.1M15 11.6c-0.05 0 -0.05 -0.05 -0.05 -0.05v-0.2c0.15 0.05 0.25 0.15 0.3 0.35l-0.25 -0.1m-0.8 8.2 -0.3 -0.2c0 -0.05 0.95 -1.15 1.05 -1.3l0.35 0.15c-0.15 0.35 -0.7 1.45 -1.2 1.85l0.1 -0.5" stroke-width="0.5"></path>
  <g fill="#ffd200">
    <path d="m13.75 19.6 0.35 0.2 -0.1 0.45 -0.35 -0.25z" stroke-width="0.5"></path>
    <path d="m12 15.6 -0.15 0.05 1.5 3.35h0.15l-1.5 -3.4m1.8 3.95 -0.1 0.1 0.05 0.15 0.15 -0.05 -0.1 -0.2" stroke-width="0.5"></path>
  </g>
  <g fill="#699635">
    <path d="m12.45 18.25 0.2 0.3 -0.2 0.05 0.55 0.25 0.3 -0.1 -0.05 -0.2 -0.8 -0.3m1 -0.5 -0.25 0.35 0.2 0.65 0.3 -0.25 0.05 -0.4 -0.2 0.1 -0.1 -0.45m-0.6 -0.05 -0.4 0.05 -0.35 -0.15 0.25 -0.1 -0.2 -0.25h0.3l0.4 0.45" stroke-width="0.5"></path>
    <path d="m12.95 16.7 0.05 0.3 0.15 -0.1v0.55l-0.3 0.3 -0.25 -0.45 0.05 -0.3 0.3 -0.3m-1.35 -0.55 0.4 0.05 0.3 0.4h-0.4l-0.3 -0.3 0.2 -0.05 -0.2 -0.1m0.7 -0.4 0.1 0.25 0.15 -0.15 0.1 0.5 -0.2 0.35 -0.3 -0.7 0.15 -0.25m-0.75 -0.8 0.05 0.35 0.1 0.15 -0.3 -0.1 0.2 0.35 0.35 0.1 0.15 -0.4 -0.2 -0.45 -0.05 0.25 -0.3 -0.25" stroke-width="0.5"></path>
  </g>
  <path fill="#ffd200" d="m20.35 15.25 0.05 0.05 -0.05 0.05v0.1h-0.3v0.35l-0.15 0.2 0.05 0.1 -0.05 0.05v0.15l-1.05 2 -0.25 0.25 0.05 0.25 -0.15 0.05 0.05 0.2 0.2 -0.05 -0.05 -0.15 0.2 -0.1 0.05 -0.35 1.05 -2 0.1 -0.1v-0.05l0.1 -0.05 0.1 -0.25 0.25 -0.2 -0.1 -0.25 0.1 -0.05v-0.1h0.05v-0.3l-0.25 0.2m-2.25 4.5v0.05H18v0.4l0.3 -0.25 -0.05 -0.1 0.05 -0.05 -0.05 -0.1h-0.05l-0.1 0.05" stroke-width="0.5"></path>
  <path fill="#f5d402" d="M18.15 13.65c0 -0.15 0.2 -0.3 0.2 -0.3h-4.9s0.2 0.15 0.2 0.3v3.65c0 0.1 0.05 0.15 0.1 0.2 0.05 0.05 0.15 0.15 0.25 0.2 0.3 0.2 0.85 0.45 1.25 0.6 0.35 0.15 0.5 0.2 0.65 0.45 0.2 -0.2 0.3 -0.3 0.65 -0.45 0.4 -0.2 0.95 -0.4 1.25 -0.6 0.1 -0.05 0.2 -0.15 0.25 -0.2 0.05 -0.05 0.1 -0.1 0.1 -0.2v-3.65" stroke-width="0.5"></path>
  <path fill="#ed4c5c" d="M13.8 15.7v-2.05c0 -0.1 -0.05 -0.2 -0.05 -0.2h4.4s-0.05 0.05 -0.05 0.2v2.05l-2.15 0.65 -2.15 -0.65" stroke-width="0.5"></path>
  <path fill="#428bc1" d="M18.05 15.7h-4.2v1.6c0 0.1 0.1 0.25 0.55 0.5 0.8 0.4 1.4 0.55 1.55 0.8 0.2 -0.2 0.8 -0.4 1.55 -0.8 0.5 -0.25 0.55 -0.4 0.55 -0.5v-1.6" stroke-width="0.5"></path>
  <g fill="#ffe62e">
    <path d="m14.45 16.65 -0.4 0.5 0.35 0.55 0.65 -0.15 0.05 -0.65 -0.65 -0.25m2.3 0.6c0 0.2 0.2 0.4 0.4 0.45 -0.05 -0.05 -0.05 -0.15 -0.05 -0.2 -0.05 -0.25 0.15 -0.45 0.45 -0.45h0.15c-0.1 -0.15 -0.3 -0.25 -0.5 -0.25 -0.25 0 -0.45 0.2 -0.45 0.45m-1.95 -2.65 0.7 0.75 0.2 -0.1 0.25 0.1 0.25 -0.1 0.2 0.1 0.7 -0.75 -0.25 -0.8 0.55 0.85 -0.75 0.95 0.15 0.4 -0.4 0.15 -0.05 1.45 0.2 0.2 -0.6 0.35 -0.6 -0.35 0.2 -0.2 -0.05 -1.45 -0.4 -0.15 0.15 -0.4 -0.75 -0.95 0.55 -0.85 -0.25 0.8" stroke-width="0.5"></path>
    <path d="m15.9 13.85 0.1 0.25 0.25 -0.1 -0.1 0.25 0.25 0.1 -0.25 0.1 0.1 0.25 -0.25 -0.2 -0.1 0.25 -0.05 -0.25 -0.25 0.1 0.1 -0.25 -0.25 -0.1 0.25 -0.1 -0.1 -0.25 0.25 0.1 0.05 -0.15m-1.05 1.85 -0.4 0.3 -0.45 -0.3 0.45 -0.25 0.4 0.25m2.95 0 -0.4 0.3 -0.4 -0.3 0.4 -0.25 0.4 0.25" stroke-width="0.5"></path>
  </g>
</svg>