<svg xmlns="http://www.w3.org/2000/svg" viewBox="0 0 32 32" id="Flag-United-Kingdom--Streamline-Emojitwo" height="32" width="32">
  <desc>
    Flag United Kingdom Streamline Emoji: https://streamlinehq.com
  </desc>
  <title>flag: United Kingdom</title>
  <g fill="#2a5f9e">
    <path d="M11 30.15V23.25l-5.15 3.8c1.45 1.35 3.2 2.4 5.15 3.1m10 0c1.95 -0.7 3.7 -1.75 5.15 -3.1L21 23.2v6.95M1.85 21c0.15 0.5 0.35 0.95 0.6 1.45L4.4 21H1.85m25.75 0 1.95 1.45c0.2 -0.45 0.4 -0.95 0.6 -1.45h-2.55" stroke-width="0.5"></path>
  </g>
  <g fill="#ffffff">
    <path d="M11.75 19H1.3c0.15 0.7 0.35 1.35 0.55 2h2.55l-1.95 1.45c0.4 0.85 0.85 1.6 1.4 2.35L9 21h2v1l-5.85 4.3 0.7 0.7L11 23.25v6.9c0.65 0.25 1.3 0.4 2 0.55V19h-1.25m18.95 0H19v11.7c0.7 -0.15 1.35 -0.35 2 -0.55V23.25L26.15 27c0.7 -0.65 1.3 -1.35 1.9 -2.1L22.7 21h3.4l3.05 2.25c0.15 -0.25 0.3 -0.55 0.4 -0.8L27.6 21h2.55c0.2 -0.65 0.4 -1.3 0.55 -2" stroke-width="0.5"></path>
  </g>
  <g fill="#ed4c5c">
    <path d="M3.85 24.8c0.4 0.55 0.8 1.05 1.25 1.55L11 22.05v-1h-2L3.85 24.8M22.75 21l5.35 3.9c0.2 -0.25 0.35 -0.5 0.55 -0.75 0.05 -0.05 0.05 -0.1 0.1 -0.1 0.15 -0.25 0.35 -0.55 0.5 -0.8L26.1 21h-3.35" stroke-width="0.5"></path>
  </g>
  <g fill="#2a5f9e">
    <path d="M21 1.85v6.9l5.15 -3.8C24.7 3.6 22.95 2.55 21 1.85m-10 0c-1.95 0.7 -3.7 1.75 -5.15 3.1L11 8.8V1.85M30.15 11c-0.15 -0.5 -0.35 -0.95 -0.6 -1.45L27.6 11h2.55M4.4 11l-1.95 -1.45c-0.2 0.5 -0.4 0.95 -0.6 1.45h2.55" stroke-width="0.5"></path>
  </g>
  <g fill="#ffffff">
    <path d="M20.25 13h10.4c-0.15 -0.7 -0.35 -1.35 -0.55 -2h-2.55l1.95 -1.45c-0.4 -0.85 -0.85 -1.6 -1.4 -2.35L23 11h-2v-1l5.85 -4.3 -0.7 -0.7L21 8.75V1.85c-0.65 -0.25 -1.3 -0.4 -2 -0.55V13h1.25M1.3 13H13V1.3c-0.7 0.15 -1.35 0.35 -2 0.55v6.9L5.85 5c-0.7 0.65 -1.3 1.35 -1.9 2.1L9.3 11h-3.4l-3.05 -2.25c-0.15 0.25 -0.3 0.55 -0.4 0.8L4.4 11H1.85c-0.2 0.65 -0.4 1.3 -0.55 2" stroke-width="0.5"></path>
  </g>
  <g fill="#ed4c5c">
    <path d="M28.15 7.2c-0.4 -0.55 -0.8 -1.05 -1.25 -1.55L21 9.95v1h2l5.15 -3.75M9.25 11 3.95 7.1c-0.2 0.25 -0.35 0.5 -0.55 0.75 -0.05 0.05 -0.05 0.1 -0.1 0.1 -0.15 0.25 -0.35 0.55 -0.5 0.8l3.05 2.25h3.4" stroke-width="0.5"></path>
    <path d="M30.7 13H19V1.3c-0.95 -0.2 -1.95 -0.3 -3 -0.3s-2.05 0.1 -3 0.3V13H1.3c-0.2 0.95 -0.3 1.95 -0.3 3s0.1 2.05 0.3 3H13v11.7c0.95 0.2 1.95 0.3 3 0.3s2.05 -0.1 3 -0.3V19h11.7c0.2 -0.95 0.3 -1.95 0.3 -3s-0.1 -2.05 -0.3 -3" stroke-width="0.5"></path>
  </g>
</svg>